<svg width="22" height="22" viewBox="0 0 22 22" fill="none" xmlns="http://www.w3.org/2000/svg">
<path d="M3.43491 8.49158H19.3486M15.8122 12.0292L6.97128 12.028M9.91823 15.5648L6.97128 15.5643M6.97128 3.18701V4.9552M15.8122 3.18701V4.9552M6.26401 19.1007H16.5195C17.5098 19.1007 18.005 19.1007 18.3832 18.908C18.7159 18.7385 18.9864 18.468 19.1559 18.1353C19.3486 17.7571 19.3486 17.2619 19.3486 16.2716V7.7843C19.3486 6.79402 19.3486 6.29888 19.1559 5.92065C18.9864 5.58794 18.7159 5.31744 18.3832 5.14792C18.005 4.9552 17.5098 4.9552 16.5195 4.9552H6.26401C5.27373 4.9552 4.77859 4.9552 4.40035 5.14792C4.06764 5.31744 3.79715 5.58794 3.62763 5.92065C3.43491 6.29888 3.43491 6.79402 3.43491 7.7843V16.2716C3.43491 17.2619 3.43491 17.7571 3.62763 18.1353C3.79715 18.468 4.06764 18.7385 4.40035 18.908C4.77859 19.1007 5.27372 19.1007 6.26401 19.1007Z" stroke="black" stroke-width="1.76819" stroke-linecap="round" stroke-linejoin="round"/>
</svg>
