<svg width="31" height="31" viewBox="0 0 31 31" fill="none" xmlns="http://www.w3.org/2000/svg">
<g clip-path="url(#clip0_349_3769)">
<path d="M1.7696 17.1976C2.12704 17.6807 2.8897 18.0718 3.47288 18.0718C4.05605 18.0718 4.52881 18.0718 4.52881 18.0718C4.52881 18.0718 4.68821 18.0729 4.9771 18.0756C4.97602 18.1044 4.96839 18.1311 4.96839 18.1599C4.96839 19.7026 6.21963 20.9544 7.76299 20.9544C9.30635 20.9544 10.5576 19.7032 10.5576 18.1599C10.5576 18.1446 10.5533 18.1305 10.5533 18.1153C13.8978 18.1365 18.0802 18.1577 21.6037 18.1593C21.6037 19.7021 22.8549 20.9539 24.3983 20.9539C25.9416 20.9539 27.1929 19.7026 27.1929 18.1593C27.1929 18.1501 27.1901 18.1419 27.1901 18.1327C28.0867 18.1191 28.6726 18.0989 28.8211 18.0712C29.3662 17.9689 29.8058 17.3743 30.1039 16.8232C30.3895 16.2944 30.39 15.7825 30.2077 15.7281C30.1522 15.7118 30.0897 15.646 30.0179 15.5557C28.9984 15.6215 27.8271 15.2173 27.0215 14.8615C26.4715 14.6189 26.5357 14.3752 27.1368 14.3752H28.8939C27.318 13.3389 24.2721 12.9075 22.6449 12.7459C22.0465 12.6866 21.1418 12.4086 20.6147 12.1203C19.3439 11.4256 17.0345 10.2695 15.223 9.95243C13.3326 9.62168 10.1235 9.76475 8.45226 9.87245C7.85276 9.91107 7.4415 10.0857 7.53287 10.2495C7.62423 10.4132 7.21355 10.6009 6.62326 10.7152C4.11863 11.2004 2.46815 12.1916 1.43833 13.0734C2.11941 13.1975 3.08176 13.3568 3.88311 13.4292C4.48153 13.4836 4.54462 13.7061 3.96031 13.847C3.25419 14.0173 2.17215 14.1011 0.728345 13.7589C0.688067 13.8029 0.646708 13.8481 0.609787 13.89C0.21537 14.3432 0.264352 15.1624 0.621733 15.6455L1.7696 17.1976ZM19.4477 12.6475C16.5133 12.9353 13.2427 12.6475 13.2427 12.6475L12.517 11.0003C17.9299 10.9915 19.4477 12.6475 19.4477 12.6475ZM11.5927 11.009L12.1204 12.5931C12.1204 12.5931 7.16502 12.8439 5.38778 12.2629C5.38778 12.2635 7.50016 10.8768 11.5927 11.009Z" fill="black"/>
<path d="M21.4018 6.95393H29.6979C29.9987 6.95393 30.2419 6.71078 30.2419 6.40995C30.2419 6.10911 29.9987 5.86597 29.6979 5.86597H21.4018C21.1009 5.86597 20.8578 6.10911 20.8578 6.40995C20.8578 6.71078 21.1009 6.95393 21.4018 6.95393Z" fill="black"/>
<path d="M18.0017 8.86335H26.2979C26.5987 8.86335 26.8418 8.6202 26.8418 8.31937C26.8418 8.01854 26.5987 7.77539 26.2979 7.77539H18.0017C17.7009 7.77539 17.4578 8.01854 17.4578 8.31937C17.4578 8.61963 17.7009 8.86335 18.0017 8.86335Z" fill="black"/>
<path d="M20.4498 22.1807C20.4498 21.8799 20.2067 21.6367 19.9058 21.6367H11.6096C11.3088 21.6367 11.0656 21.8799 11.0656 22.1807C11.0656 22.4815 11.3088 22.7247 11.6096 22.7247H19.9058C20.2066 22.7247 20.4498 22.4815 20.4498 22.1807Z" fill="black"/>
<path d="M8.20957 23.5461C7.90874 23.5461 7.66559 23.7893 7.66559 24.0901C7.66559 24.391 7.90874 24.6341 8.20957 24.6341H16.5057C16.8066 24.6341 17.0497 24.391 17.0497 24.0901C17.0497 23.7893 16.8066 23.5461 16.5057 23.5461H8.20957Z" fill="black"/>
</g>
<defs>
<clipPath id="clip0_349_3769">
<rect width="30" height="30" fill="white" transform="translate(0.333374 0.25)"/>
</clipPath>
</defs>
</svg>
