<svg width="31" height="31" viewBox="0 0 31 31" fill="none" xmlns="http://www.w3.org/2000/svg">
<path fill-rule="evenodd" clip-rule="evenodd" d="M28.1666 16.4178C28.1666 16.445 28.1666 16.4725 28.1666 16.5V19C28.1666 19.0275 28.1666 19.055 28.1666 19.0823C28.1666 20.1904 28.1668 21.1451 28.064 21.9098C27.9538 22.7291 27.7054 23.5146 27.0683 24.1516C26.4313 24.7888 25.6458 25.0371 24.8264 25.1474C24.0618 25.2501 23.107 25.2501 21.9989 25.25H14.3344C13.2263 25.2501 12.2715 25.2501 11.5069 25.1474C10.6875 25.0371 9.90207 24.7888 9.26498 24.1516C8.6279 23.5146 8.37948 22.7291 8.26932 21.9098C8.16652 21.1451 8.16657 20.1904 8.16663 19.0823V16.4178C8.16657 15.3096 8.16652 14.3549 8.26932 13.5903C8.37948 12.7709 8.6279 11.9854 9.26498 11.3484C9.90207 10.7113 10.6875 10.4629 11.5069 10.3527C12.2715 10.2499 13.2263 10.2499 14.3344 10.25H21.9166C21.9441 10.25 21.9716 10.25 21.9989 10.25C23.107 10.2499 24.0618 10.2499 24.8264 10.3527C25.6458 10.4629 26.4313 10.7113 27.0683 11.3484C27.7054 11.9854 27.9538 12.7709 28.064 13.5903C28.1668 14.3549 28.1666 15.3096 28.1666 16.4178ZM14.4166 17.75C14.4166 15.6789 16.0956 14 18.1666 14C20.2378 14 21.9166 15.6789 21.9166 17.75C21.9166 19.8211 20.2378 21.5 18.1666 21.5C16.0956 21.5 14.4166 19.8211 14.4166 17.75Z" fill="black"/>
<path d="M23.1623 9.00492C22.8045 8.99996 22.4368 8.99999 22.0653 9.00004H14.2683C13.2136 8.99993 12.1887 8.99982 11.3405 9.11387C10.3833 9.24256 9.28964 9.55608 8.38122 10.4645C7.47279 11.3729 7.15927 12.4666 7.03058 13.4238C6.91653 14.272 6.91663 15.2969 6.91674 16.3517V19.1484C6.9167 19.5148 6.91667 19.8775 6.92142 20.2305C6.84047 20.2265 6.76219 20.2218 6.68667 20.2159C6.22014 20.1799 5.75518 20.1005 5.30349 19.8853C4.52702 19.5153 3.90134 18.8897 3.53134 18.1132C3.31609 17.6614 3.23673 17.1965 3.20073 16.73C3.1666 16.2877 3.16662 15.7514 3.16664 15.1299L3.16663 11.4177C3.16657 10.3096 3.16652 9.35484 3.26932 8.59027C3.37948 7.77088 3.6279 6.98544 4.26499 6.34836C4.90207 5.71128 5.6875 5.46286 6.50689 5.35269C7.27147 5.24989 8.22624 5.24994 9.33435 5.25001L18.8404 5.24994C19.3676 5.24948 19.8219 5.24908 20.226 5.33839C21.6506 5.65331 22.7634 6.76598 23.0783 8.19064C23.1336 8.44099 23.1545 8.71061 23.1623 9.00492Z" fill="black"/>
</svg>
