<svg width="30" height="31" viewBox="0 0 30 31" fill="none" xmlns="http://www.w3.org/2000/svg">
<path d="M21.1855 3.75195C21.1855 3.75195 12.4211 14.5531 11.9844 15.4707C11.7156 16.5205 12.8764 17.4238 13.9844 17.4238C14.169 17.4238 14.378 17.4237 14.582 17.4238L10 27.75C10 27.75 18.7625 16.9489 19.1992 16.0312C19.4679 14.9815 18.3072 14.0781 17.1992 14.0781C17.0146 14.0781 16.8056 14.0783 16.6016 14.0781L21.1855 3.75195ZM7.40625 3.79102L4.99219 11.791H6.95508L7.35938 10.0703H9.69141L10.1074 11.791H12.1152L9.70312 3.79102H7.40625ZM8.52539 5.16406L9.36719 8.69727H7.68164L8.52539 5.16406Z" fill="black"/>
</svg>
