<svg width="31" height="31" viewBox="0 0 31 31" fill="none" xmlns="http://www.w3.org/2000/svg">
<path fill-rule="evenodd" clip-rule="evenodd" d="M4.81561 3.98224C4.08337 4.71446 4.08337 5.89297 4.08337 8.25V20.75C4.08337 24.2855 4.08337 26.0532 5.18172 27.1516C5.98335 27.9532 7.14156 28.1699 9.08337 28.2284V24.5C9.08337 23.8096 9.64302 23.25 10.3334 23.25C11.0237 23.25 11.5834 23.8096 11.5834 24.5V28.25H19.0834V24.5C19.0834 23.8096 19.643 23.25 20.3334 23.25C21.0237 23.25 21.5834 23.8096 21.5834 24.5V28.2284C23.5251 28.1699 24.6834 27.9532 25.485 27.1516C26.5834 26.0532 26.5834 24.2855 26.5834 20.75V8.25C26.5834 5.89297 26.5834 4.71446 25.8511 3.98224C25.1189 3.25 23.9404 3.25 21.5834 3.25H9.08337C6.72635 3.25 5.54784 3.25 4.81561 3.98224ZM10.3334 10.75C9.64302 10.75 9.08337 11.3096 9.08337 12C9.08337 12.6903 9.64302 13.25 10.3334 13.25H20.3334C21.0237 13.25 21.5834 12.6903 21.5834 12C21.5834 11.3096 21.0237 10.75 20.3334 10.75H10.3334ZM10.3334 18.25H20.3334C21.0237 18.25 21.5834 17.6904 21.5834 17C21.5834 16.3096 21.0237 15.75 20.3334 15.75H10.3334C9.64302 15.75 9.08337 16.3096 9.08337 17C9.08337 17.6904 9.64302 18.25 10.3334 18.25Z" fill="black"/>
</svg>
