<svg width="30" height="31" viewBox="0 0 30 31" fill="none" xmlns="http://www.w3.org/2000/svg">
<path d="M23.9062 9.62494H20.1562C21.0674 9.62371 21.8252 8.87969 21.8264 7.96856C21.8276 7.05742 21.09 6.31979 20.1789 6.32102C20.1802 5.29645 19.2472 4.49125 18.1839 4.70945C17.4096 4.8683 16.875 5.58695 16.875 6.37738V6.70943C16.6256 6.48455 16.299 6.34369 15.9375 6.34369H14.0625C13.701 6.34369 13.3744 6.48455 13.125 6.70943V6.37738C13.125 5.5869 12.5904 4.8683 11.8161 4.7094C10.7527 4.49119 9.81973 5.29639 9.82107 6.32096C8.91 6.31973 8.17236 7.05736 8.17353 7.9685C8.17482 8.87969 8.93262 9.62371 9.84375 9.62494H6.09375C5.05822 9.62494 4.21875 10.4644 4.21875 11.4999V11.9687C4.21875 13.0042 5.05822 13.8437 6.09375 13.8437H11.7188V14.7812H5.625V24.2312C5.625 25.2253 6.4309 26.0312 7.425 26.0312H11.7188C12.2365 26.0312 12.6562 25.6115 12.6562 25.0937V10.0937H17.3438V25.0937C17.3438 25.6115 17.7635 26.0312 18.2812 26.0312H22.575C23.5691 26.0312 24.375 25.2253 24.375 24.2312V14.7812H18.2812V13.8437H23.9062C24.9418 13.8437 25.7812 13.0042 25.7812 11.9687V11.4999C25.7812 10.4644 24.9418 9.62494 23.9062 9.62494ZM13.5938 9.15619V7.74994C13.5938 7.49154 13.8039 7.28119 14.0625 7.28119H15.9375C16.1961 7.28119 16.4062 7.49154 16.4062 7.74994V9.15619H13.5938Z" fill="black"/>
</svg>
