<svg width="31" height="31" viewBox="0 0 31 31" fill="none" xmlns="http://www.w3.org/2000/svg">
<g clip-path="url(#clip0_349_3814)">
<path d="M20.3489 16.9811C20.2715 16.7066 20.0272 16.5443 19.695 16.5443C19.3632 16.5443 19.1186 16.7066 19.0245 16.9908C18.9543 17.015 18.9526 17.0158 18.9526 17.8457C18.9526 18.6748 18.9543 18.6757 19.0394 18.7112C19.119 18.9849 19.3636 19.1471 19.695 19.1471C20.0268 19.1471 20.271 18.9848 20.365 18.7023C20.4352 18.6756 20.4369 18.6748 20.4369 17.8457C20.4369 17.0158 20.4352 17.015 20.3489 16.9811Z" fill="black"/>
<path d="M12.2923 12.7887C12.2144 12.5141 11.9698 12.3511 11.638 12.3511C11.3062 12.3511 11.0616 12.5141 10.9679 12.7983C10.8972 12.8225 10.8956 12.8233 10.8956 13.6524C10.8956 14.4824 10.8972 14.4832 10.9828 14.5179C11.0619 14.7924 11.3061 14.9546 11.6379 14.9546C11.9698 14.9546 12.2139 14.7923 12.308 14.5098C12.3782 14.4832 12.3799 14.4824 12.3799 13.6524C12.3799 12.8233 12.3783 12.8226 12.2923 12.7887Z" fill="black"/>
<path d="M28.7652 16.3223C28.6247 15.9542 28.6247 15.5465 28.7652 15.1783L29.9059 12.1832C30.1751 11.4768 29.9156 10.6792 29.2835 10.2667L26.5995 8.514C26.2698 8.29843 26.0304 7.96901 25.9274 7.5888L25.0899 4.49435C24.8925 3.76538 24.2135 3.27208 23.4595 3.31005L20.2585 3.46989C19.8645 3.48929 19.4775 3.36337 19.1703 3.11634L16.6744 1.10604C16.0863 0.631318 15.2471 0.631318 14.659 1.10604L12.1632 3.11628C11.856 3.36331 11.4689 3.48923 11.0749 3.46983L7.87392 3.30999C7.11994 3.27202 6.44095 3.76532 6.24355 4.49429L5.40595 7.58874C5.303 7.96896 5.06365 8.29837 4.73388 8.51394L2.04994 10.2666C1.41783 10.6791 1.15826 11.4767 1.42709 12.1831L2.56826 15.1783C2.70871 15.5464 2.70871 15.9541 2.56826 16.3223L1.42709 19.3174C1.15826 20.023 1.41777 20.8214 2.04994 21.234L4.73388 22.9867C5.06371 23.2015 5.30306 23.5308 5.40595 23.9118L6.24355 27.0055C6.44095 27.7353 7.11988 28.2277 7.87392 28.1906L11.0749 28.0308C11.4689 28.0105 11.856 28.1365 12.1632 28.3843L14.659 30.3945C15.2471 30.8685 16.0863 30.8685 16.6744 30.3945L19.1702 28.3843C19.4774 28.1365 19.8645 28.0105 20.2585 28.0308L23.4594 28.1906C24.2135 28.2277 24.8924 27.7353 25.0898 27.0055L25.9274 23.9118C26.0303 23.5308 26.2697 23.2015 26.5995 22.9867L29.2834 21.234C29.9155 20.8214 30.1751 20.023 29.9058 19.3174L28.7652 16.3223ZM11.638 16.1261C10.605 16.1261 9.81876 15.6288 9.53458 14.7949C9.50669 14.715 9.48326 14.6657 9.46392 14.6246C9.40662 14.5026 9.38722 14.4614 9.38722 13.6525C9.38722 12.8452 9.40662 12.8041 9.46392 12.6829C9.48326 12.6409 9.50669 12.5917 9.53412 12.5118C9.81871 11.6786 10.605 11.1814 11.638 11.1814C12.6718 11.1814 13.4581 11.6786 13.741 12.511C13.7693 12.5917 13.7927 12.6417 13.8125 12.6829C13.8702 12.8048 13.8896 12.846 13.8896 13.6525C13.8896 14.4607 13.8702 14.5019 13.8121 14.6237C13.7927 14.6649 13.7693 14.7142 13.7414 14.7941C13.4581 15.6288 12.6718 16.1261 11.638 16.1261ZM13.9586 21.3196C13.8633 21.5271 13.6546 21.6611 13.4266 21.6611H13.0128C12.8121 21.6611 12.6277 21.5602 12.5199 21.3914C12.4113 21.2227 12.3964 21.0136 12.4799 20.8303L17.3755 10.1803C17.4708 9.9728 17.6794 9.83962 17.9079 9.83962H18.3217C18.5223 9.83962 18.7064 9.93976 18.8145 10.1084C18.9231 10.2772 18.9381 10.4871 18.8545 10.6695L13.9586 21.3196ZM21.8691 18.8169C21.8493 18.8581 21.8263 18.9074 21.7984 18.9865C21.5151 19.8212 20.7287 20.3193 19.695 20.3193C18.6616 20.3193 17.8753 19.8212 17.5916 18.9873C17.5637 18.9074 17.5402 18.859 17.5209 18.8178C17.4636 18.6959 17.4442 18.6547 17.4442 17.8458C17.4442 17.0376 17.4636 16.9964 17.5205 16.8754C17.5402 16.8342 17.5637 16.7842 17.5912 16.7042C17.8753 15.8711 18.6617 15.3738 19.695 15.3738C20.7288 15.3738 21.5151 15.8711 21.7981 16.7042C21.8263 16.785 21.8498 16.8342 21.8691 16.8754C21.9268 16.9973 21.9462 17.0384 21.9462 17.8458C21.9462 18.6538 21.9268 18.695 21.8691 18.8169Z" fill="black"/>
</g>
<defs>
<clipPath id="clip0_349_3814">
<rect width="30" height="30" fill="white" transform="translate(0.666626 0.75)"/>
</clipPath>
</defs>
</svg>
